<svg xmlns="http://www.w3.org/2000/svg" width="32" height="32" fill="none"><g clip-path="url(#a)"><rect width="32" height="32" fill="#D7D6FE" rx="4"/><path fill="#948BFA" fill-rule="evenodd" d="M19.736 7.85c2.13 2.15 2.13 5.563 0 7.585-2.13 2.023-5.513 2.15-7.518 0-2.005-2.149-2.13-5.562 0-7.585a5.416 5.416 0 0 1 7.518 0M23.472 22.7c4.26 4.299 4.26 11.125 0 15.17-4.26 4.046-11.026 4.299-15.036 0-4.01-4.297-4.26-11.124 0-15.17 4.26-4.045 10.776-4.045 15.036 0" clip-rule="evenodd"/></g><defs><clipPath id="a"><rect width="32" height="32" fill="#fff" rx="4"/></clipPath></defs></svg>